<svg width="512" height="512" viewBox="0 0 512 512" xmlns="http://www.w3.org/2000/svg">
  <defs>
    <linearGradient id="board" x1="0" y1="0" x2="0" y2="1">
      <stop offset="0" stop-color="#fbf7ef"/>
      <stop offset="1" stop-color="#f0e7d3"/>
    </linearGradient>
    <linearGradient id="ink" x1="0.15" y1="0" x2="0.85" y2="1">
      <stop offset="0" stop-color="#14304e"/>
      <stop offset="1" stop-color="#1d4488"/>
    </linearGradient>
    <linearGradient id="spark" x1="0" y1="0" x2="1" y2="1">
      <stop offset="0" stop-color="#edc25a"/>
      <stop offset="1" stop-color="#dca02f"/>
    </linearGradient>
    <filter id="soft" x="-20%" y="-20%" width="140%" height="140%">
      <feDropShadow dx="0" dy="7" stdDeviation="11" flood-color="#000" flood-opacity="0.17"/>
    </filter>
    <filter id="inksoft" x="-20%" y="-20%" width="140%" height="140%">
      <feDropShadow dx="0" dy="3" stdDeviation="3" flood-color="#0a1c30" flood-opacity="0.22"/>
    </filter>
  </defs>

  <rect x="56" y="56" width="400" height="400" rx="94" fill="url(#board)" filter="url(#soft)"/>

  <g stroke="#d8ccb2" stroke-width="4" stroke-linecap="round">
    <line x1="118" y1="156" x2="394" y2="156"/>
    <line x1="118" y1="224" x2="394" y2="224"/>
    <line x1="118" y1="292" x2="394" y2="292"/>
    <line x1="118" y1="360" x2="394" y2="360"/>
  </g>
  <line x1="146" y1="96" x2="146" y2="416" stroke="#e3a3a3" stroke-width="5" stroke-linecap="round"/>

  <path d="M334 174
           C330 138 282 122 244 132
           C200 144 188 186 222 208
           C258 230 318 240 320 292
           C322 348 270 366 216 356
           C190 351 174 336 168 316"
        fill="none" stroke="url(#ink)" stroke-width="32"
        stroke-linecap="round" stroke-linejoin="round" filter="url(#inksoft)"/>

  <g transform="translate(348 152)">
    <path d="M0 -30 C4.5 -9 9 -4.5 30 0 C9 4.5 4.5 9 0 30 C-4.5 9 -9 4.5 -30 0 C-9 -4.5 -4.5 -9 0 -30 Z"
          fill="url(#spark)"/>
    <circle cx="0" cy="0" r="5.5" fill="#fff" opacity="0.9"/>
  </g>
</svg>
